<?xml version="1.0" encoding="iso-8859-1"?>
<!-- Generator: Adobe Illustrator 16.0.4, SVG Export Plug-In . SVG Version: 6.00 Build 0)  -->
<!DOCTYPE svg PUBLIC "-//W3C//DTD SVG 1.1//EN" "http://www.w3.org/Graphics/SVG/1.1/DTD/svg11.dtd">
<svg version="1.1" id="Layer_1" xmlns="http://www.w3.org/2000/svg" xmlns:xlink="http://www.w3.org/1999/xlink" x="0px" y="0px"
	 width="226.772px" height="226.772px" viewBox="0 0 226.772 226.772" style="enable-background:new 0 0 226.772 226.772;"
	 xml:space="preserve">
<rect style="fill:#FFFFFF;" width="226.772" height="226.772"/>
<g>
	<path style="fill:#00AAD3;" d="M141.273,165.864l-8.154-23.132H95.16l-8.156,23.132H64.762l39.74-103.792h20.165l39.44,103.792
		H141.273z M119.329,104.181c-2.076-6.08-4.151-12.306-5.19-16.162c-1.037,3.856-3.112,10.083-5.189,16.162l-6.673,18.832h23.725
		L119.329,104.181z"/>
</g>
<path style="fill:#00AAD3;" d="M60.464,116.837c-0.489,1.455-2.065,2.238-3.52,1.749l-28.947-9.714
	c-1.455-0.488-2.24-2.064-1.751-3.52l2.407-7.172c0.489-1.455,2.065-2.238,3.521-1.75l28.945,9.715
	c1.456,0.489,2.241,2.063,1.752,3.519L60.464,116.837z"/>
<path style="fill:#00AAD3;" d="M58.884,139.563c0.488,1.455-0.297,3.032-1.754,3.519l-20.618,7.319
	c-1.457,0.486-3.03-0.298-3.518-1.754l-2.402-7.173c-0.487-1.455,0.298-3.032,1.755-3.518l20.618-7.32
	c1.456-0.486,3.03,0.299,3.518,1.754L58.884,139.563z"/>
<path style="fill:#00AAD3;" d="M53.209,73.374c-1.214,0.938-1.438,2.684-0.498,3.9l13.066,17.549c0.94,1.215,2.684,1.438,3.899,0.5
	l5.984-4.625c1.215-0.94,1.439-2.686,0.5-3.9l-13.067-17.55c-0.938-1.213-2.684-1.437-3.899-0.498L53.209,73.374z"/>
<path style="fill:#00AAD3;" d="M168.196,116.837c0.489,1.455,2.065,2.238,3.521,1.749l28.947-9.714
	c1.454-0.488,2.238-2.064,1.75-3.52l-2.407-7.172c-0.488-1.455-2.064-2.238-3.521-1.75l-28.945,9.715
	c-1.456,0.489-2.241,2.063-1.753,3.519L168.196,116.837z"/>
<path style="fill:#00AAD3;" d="M169.777,139.563c-0.489,1.455,0.297,3.032,1.755,3.519l20.617,7.319
	c1.458,0.486,3.032-0.298,3.519-1.754l2.401-7.173c0.489-1.455-0.297-3.032-1.754-3.518l-20.617-7.32
	c-1.456-0.486-3.032,0.299-3.519,1.754L169.777,139.563z"/>
<path style="fill:#00AAD3;" d="M175.453,73.374c1.214,0.938,1.438,2.684,0.497,3.9l-13.066,17.549
	c-0.94,1.215-2.684,1.438-3.899,0.5l-5.985-4.625c-1.214-0.94-1.438-2.686-0.498-3.9l13.065-17.55
	c0.939-1.213,2.686-1.437,3.9-0.498L175.453,73.374z"/>
</svg>
