<?xml version="1.0" encoding="utf-8"?>
<!-- Generator: Adobe Illustrator 22.0.1, SVG Export Plug-In . SVG Version: 6.00 Build 0)  -->
<svg version="1.1" id="Layer_1" xmlns="http://www.w3.org/2000/svg" xmlns:xlink="http://www.w3.org/1999/xlink" x="0px" y="0px"
	 viewBox="0 0 226.8 226.8" style="enable-background:new 0 0 226.8 226.8;" xml:space="preserve">
<style type="text/css">
	.st0{fill:#FFFFFF;}
</style>
<g>
	<path class="st0" d="M140.9,165.9l-8.2-23.1h-38l-8.2,23.1H64.4l39.7-103.8h20.2l39.4,103.8H140.9z M118.9,104.2
		c-2.1-6.1-4.2-12.3-5.2-16.2c-1,3.9-3.1,10.1-5.2,16.2l-6.7,18.8h23.7L118.9,104.2z"/>
</g>
<path class="st0" d="M60.1,116.8c-0.5,1.5-2.1,2.2-3.5,1.7l-28.9-9.7c-1.5-0.5-2.2-2.1-1.8-3.5l2.4-7.2c0.5-1.5,2.1-2.2,3.5-1.8
	l28.9,9.7c1.5,0.5,2.2,2.1,1.8,3.5L60.1,116.8z"/>
<path class="st0" d="M58.5,139.6c0.5,1.5-0.3,3-1.8,3.5l-20.6,7.3c-1.5,0.5-3-0.3-3.5-1.8l-2.4-7.2c-0.5-1.5,0.3-3,1.8-3.5l20.6-7.3
	c1.5-0.5,3,0.3,3.5,1.8L58.5,139.6z"/>
<path class="st0" d="M52.8,73.4c-1.2,0.9-1.4,2.7-0.5,3.9l13.1,17.5c0.9,1.2,2.7,1.4,3.9,0.5l6-4.6c1.2-0.9,1.4-2.7,0.5-3.9
	L62.7,69.2c-0.9-1.2-2.7-1.4-3.9-0.5L52.8,73.4z"/>
<path class="st0" d="M167.8,116.8c0.5,1.5,2.1,2.2,3.5,1.7l28.9-9.7c1.5-0.5,2.2-2.1,1.8-3.5l-2.4-7.2c-0.5-1.5-2.1-2.2-3.5-1.8
	l-28.9,9.7c-1.5,0.5-2.2,2.1-1.8,3.5L167.8,116.8z"/>
<path class="st0" d="M169.4,139.6c-0.5,1.5,0.3,3,1.8,3.5l20.6,7.3c1.5,0.5,3-0.3,3.5-1.8l2.4-7.2c0.5-1.5-0.3-3-1.8-3.5l-20.6-7.3
	c-1.5-0.5-3,0.3-3.5,1.8L169.4,139.6z"/>
<path class="st0" d="M175,73.4c1.2,0.9,1.4,2.7,0.5,3.9l-13.1,17.5c-0.9,1.2-2.7,1.4-3.9,0.5l-6-4.6c-1.2-0.9-1.4-2.7-0.5-3.9
	l13.1-17.5c0.9-1.2,2.7-1.4,3.9-0.5L175,73.4z"/>
</svg>
